<?xml version="1.0" encoding="UTF-8" standalone="no"?>
<svg
   xmlns:dc="http://purl.org/dc/elements/1.1/"
   xmlns:cc="http://creativecommons.org/ns#"
   xmlns:rdf="http://www.w3.org/1999/02/22-rdf-syntax-ns#"
   xmlns:svg="http://www.w3.org/2000/svg"
   xmlns="http://www.w3.org/2000/svg"
   xmlns:sodipodi="http://sodipodi.sourceforge.net/DTD/sodipodi-0.dtd"
   xmlns:inkscape="http://www.inkscape.org/namespaces/inkscape"
   width="1600"
   height="1600"
   version="1.1"
   id="svg8"
   sodipodi:docname="user.svg"
   inkscape:version="0.92.4 (5da689c313, 2019-01-14)">
  <metadata
     id="metadata14">
    <rdf:RDF>
      <cc:Work
         rdf:about="">
        <dc:format>image/svg+xml</dc:format>
        <dc:type
           rdf:resource="http://purl.org/dc/dcmitype/StillImage" />
      </cc:Work>
    </rdf:RDF>
  </metadata>
  <defs
     id="defs12" />
  <sodipodi:namedview
     pagecolor="#ffffff"
     bordercolor="#666666"
     borderopacity="1"
     objecttolerance="10"
     gridtolerance="10"
     guidetolerance="10"
     inkscape:pageopacity="0"
     inkscape:pageshadow="2"
     inkscape:window-width="640"
     inkscape:window-height="480"
     id="namedview10"
     showgrid="false"
     inkscape:zoom="0.1475"
     inkscape:cx="800"
     inkscape:cy="800"
     inkscape:window-x="0"
     inkscape:window-y="0"
     inkscape:window-maximized="0"
     inkscape:current-layer="svg8" />
  <g
     id="g52"
     transform="matrix(1.3841276,0,0,1.2735792,-572.61954,-461.96207)"
     style="stroke:#000000">
    <path
       d="m 722.297,656.594 c 0.02,80.685 45.703,183.406 99.22,223.556 14.362,10.775 1.471,7.63 18.999,18.584 C 704.714,939.974 528,1010 448,1160 v 420 h 1087.5 v -420 c -80,-150 -256.714,-220.026 -392.515,-261.266 96,-60 118.195,-143.433 118.218,-242.14 C 1260.89,520 1151.5,400 991.75,400 832,400 722.61,520 722.297,656.594 Z"
       stroke-miterlimit="2.3"
       id="path42"
       style="fill:none;stroke-width:70;stroke-linecap:round;stroke-miterlimit:2.29999995"
       inkscape:connector-curvature="0" />
    <path
       d="m 752,550 c 38.64,3.52 39.962,-25.563 145.847,-19.322 158.153,9.322 107.028,57.135 214.93,60.28 C 1196.875,587.813 1193.301,561.048 1232,550 1168,480 1104.703,435.465 992,400 896,430 816,480 752,550 Z"
       id="path44"
       style="fill:#000000;fill-rule:evenodd"
       inkscape:connector-curvature="0" />
    <path
       d="M 684,1560 V 1280"
       id="path46"
       style="fill:none;stroke-width:70"
       inkscape:connector-curvature="0" />
    <path
       d="M 1298,1560 V 1280"
       id="path48"
       style="fill:none;stroke-width:70"
       inkscape:connector-curvature="0" />
    <path
       d="m 768,920 c 0,0 -37.712,122.288 0,160 105.595,105.595 342.405,105.595 448,0 37.712,-37.712 0,-160 0,-160"
       id="path50"
       style="fill:none;stroke-width:70"
       inkscape:connector-curvature="0" />
  </g>
</svg>
