<?xml version="1.0" encoding="UTF-8" standalone="no"?><svg xmlns="http://www.w3.org/2000/svg" xmlns:xlink="http://www.w3.org/1999/xlink" version="1.0" id="svg2" viewBox="0 0 600 55.714"  >
<defs id="defs4"  >
<radialGradient cx="395.71" cy="447.36" fx="50%" fy="50%" r="18.571" id="radialGradient7709" gradientUnits="userSpaceOnUse"  >
<stop offset="0" id="stop3455" style="stop-color:#f0f0f0"  />
<stop offset=".83169" id="stop3465" style="stop-color:#f1f1f1"  />
<stop offset=".90294" id="stop3469" style="stop-color:#212121;stop-opacity:.93333"  />
<stop offset="1" id="stop3457" style="stop-color:#7e7e7e"  />
</radialGradient>
<linearGradient x1="399.29" y1="421.03" x2="399.29" y2="479.56" id="linearGradient9095" gradientUnits="userSpaceOnUse"  >
<stop offset="0" id="stop2667" style="stop-color:#5e5e5e"  />
<stop offset=".078492" id="stop3443" style="stop-color:#d1d1d1"  />
<stop offset=".21302" id="stop3445" style="stop-color:#7f7f7f"  />
<stop offset=".86280" id="stop3447" style="stop-color:#7f7f7f"  />
<stop offset="1" id="stop2669" style="stop-color:#000000"  />
</linearGradient>
</defs>
<g id="layer1" transform="translate(-95 -422.36)"  >
<rect x="95" y="424.51" height="51.429" width="600" rx="5" ry="6.4286" id="rect3449" style="fill:#212121"  />
<rect x="120" y="422.36" height="55.714" width="550" id="rect2663" style="fill:url(#linearGradient9095)"  />
<path d="m136.13 441.65a3.2756 3.2756 0 1 1 -6.55 0 3.2756 3.2756 0 1 1 6.55 0z" id="use6879" style="fill:#222222" transform="translate(4.7982 -10.607)"  />
<path d="m136.13 441.65a3.2756 3.2756 0 1 1 -6.55 0 3.2756 3.2756 0 1 1 6.55 0z" id="use6881" style="fill:#222222" transform="translate(4.7982 -.77992)"  />
<path d="m136.13 441.65a3.2756 3.2756 0 1 1 -6.55 0 3.2756 3.2756 0 1 1 6.55 0z" id="use6883" style="fill:#222222" transform="translate(4.7982 9.0468)"  />
<path d="m136.13 441.65a3.2756 3.2756 0 1 1 -6.55 0 3.2756 3.2756 0 1 1 6.55 0z" id="use6885" style="fill:#222222" transform="translate(4.7982 18.873)"  />
<path d="m136.13 441.65a3.2756 3.2756 0 1 1 -6.55 0 3.2756 3.2756 0 1 1 6.55 0z" id="use6887" style="fill:#222222" transform="translate(4.7982 28.7)"  />
<path d="m136.13 441.65a3.2756 3.2756 0 1 1 -6.55 0 3.2756 3.2756 0 1 1 6.55 0z" id="use6889" style="fill:#222222" transform="translate(14.625 -10.607)"  />
<path d="m136.13 441.65a3.2756 3.2756 0 1 1 -6.55 0 3.2756 3.2756 0 1 1 6.55 0z" id="use6891" style="fill:#222222" transform="translate(14.625 -.77992)"  />
<path d="m136.13 441.65a3.2756 3.2756 0 1 1 -6.55 0 3.2756 3.2756 0 1 1 6.55 0z" id="use6893" style="fill:#222222" transform="translate(14.625 9.0468)"  />
<path d="m136.13 441.65a3.2756 3.2756 0 1 1 -6.55 0 3.2756 3.2756 0 1 1 6.55 0z" id="use6895" style="fill:#222222" transform="translate(14.625 18.873)"  />
<path d="m136.13 441.65a3.2756 3.2756 0 1 1 -6.55 0 3.2756 3.2756 0 1 1 6.55 0z" id="use6897" style="fill:#222222" transform="translate(14.625 28.7)"  />
<path d="m136.13 441.65a3.2756 3.2756 0 1 1 -6.55 0 3.2756 3.2756 0 1 1 6.55 0z" id="use6899" style="fill:#222222" transform="translate(24.452 -10.607)"  />
<path d="m136.13 441.65a3.2756 3.2756 0 1 1 -6.55 0 3.2756 3.2756 0 1 1 6.55 0z" id="use6901" style="fill:#222222" transform="translate(24.452 -.77992)"  />
<path d="m136.13 441.65a3.2756 3.2756 0 1 1 -6.55 0 3.2756 3.2756 0 1 1 6.55 0z" id="use6903" style="fill:#222222" transform="translate(24.452 9.0468)"  />
<path d="m136.13 441.65a3.2756 3.2756 0 1 1 -6.55 0 3.2756 3.2756 0 1 1 6.55 0z" id="use6905" style="fill:#222222" transform="translate(24.452 18.873)"  />
<path d="m136.13 441.65a3.2756 3.2756 0 1 1 -6.55 0 3.2756 3.2756 0 1 1 6.55 0z" id="use6907" style="fill:#222222" transform="translate(24.452 28.7)"  />
<path d="m136.13 441.65a3.2756 3.2756 0 1 1 -6.55 0 3.2756 3.2756 0 1 1 6.55 0z" id="use6909" style="fill:#222222" transform="translate(34.278 -10.607)"  />
<path d="m136.13 441.65a3.2756 3.2756 0 1 1 -6.55 0 3.2756 3.2756 0 1 1 6.55 0z" id="use6911" style="fill:#222222" transform="translate(34.278 -.77992)"  />
<path d="m136.13 441.65a3.2756 3.2756 0 1 1 -6.55 0 3.2756 3.2756 0 1 1 6.55 0z" id="use6913" style="fill:#222222" transform="translate(34.278 9.0468)"  />
<path d="m136.13 441.65a3.2756 3.2756 0 1 1 -6.55 0 3.2756 3.2756 0 1 1 6.55 0z" id="use6915" style="fill:#222222" transform="translate(34.278 18.873)"  />
<path d="m136.13 441.65a3.2756 3.2756 0 1 1 -6.55 0 3.2756 3.2756 0 1 1 6.55 0z" id="use6917" style="fill:#222222" transform="translate(34.278 28.7)"  />
<path d="m136.13 441.65a3.2756 3.2756 0 1 1 -6.55 0 3.2756 3.2756 0 1 1 6.55 0z" id="use6919" style="fill:#222222" transform="translate(44.105 -10.607)"  />
<path d="m136.13 441.65a3.2756 3.2756 0 1 1 -6.55 0 3.2756 3.2756 0 1 1 6.55 0z" id="use6921" style="fill:#222222" transform="translate(44.105 -.77992)"  />
<path d="m136.13 441.65a3.2756 3.2756 0 1 1 -6.55 0 3.2756 3.2756 0 1 1 6.55 0z" id="use6923" style="fill:#222222" transform="translate(44.105 9.0468)"  />
<path d="m136.13 441.65a3.2756 3.2756 0 1 1 -6.55 0 3.2756 3.2756 0 1 1 6.55 0z" id="use6925" style="fill:#222222" transform="translate(44.105 18.873)"  />
<path d="m136.13 441.65a3.2756 3.2756 0 1 1 -6.55 0 3.2756 3.2756 0 1 1 6.55 0z" id="use6927" style="fill:#222222" transform="translate(44.105 28.7)"  />
<path d="m136.13 441.65a3.2756 3.2756 0 1 1 -6.55 0 3.2756 3.2756 0 1 1 6.55 0z" id="use6929" style="fill:#222222" transform="translate(53.932 -10.607)"  />
<path d="m136.13 441.65a3.2756 3.2756 0 1 1 -6.55 0 3.2756 3.2756 0 1 1 6.55 0z" id="use6931" style="fill:#222222" transform="translate(53.932 -.77992)"  />
<path d="m136.13 441.65a3.2756 3.2756 0 1 1 -6.55 0 3.2756 3.2756 0 1 1 6.55 0z" id="use6933" style="fill:#222222" transform="translate(53.932 9.0468)"  />
<path d="m136.13 441.65a3.2756 3.2756 0 1 1 -6.55 0 3.2756 3.2756 0 1 1 6.55 0z" id="use6935" style="fill:#222222" transform="translate(53.932 18.873)"  />
<path d="m136.13 441.65a3.2756 3.2756 0 1 1 -6.55 0 3.2756 3.2756 0 1 1 6.55 0z" id="use6937" style="fill:#222222" transform="translate(53.932 28.7)"  />
<path d="m136.13 441.65a3.2756 3.2756 0 1 1 -6.55 0 3.2756 3.2756 0 1 1 6.55 0z" id="use6939" style="fill:#222222" transform="translate(63.758 -10.607)"  />
<path d="m136.13 441.65a3.2756 3.2756 0 1 1 -6.55 0 3.2756 3.2756 0 1 1 6.55 0z" id="use6941" style="fill:#222222" transform="translate(63.758 -.77992)"  />
<path d="m136.13 441.65a3.2756 3.2756 0 1 1 -6.55 0 3.2756 3.2756 0 1 1 6.55 0z" id="use6943" style="fill:#222222" transform="translate(63.758 9.0468)"  />
<path d="m136.13 441.65a3.2756 3.2756 0 1 1 -6.55 0 3.2756 3.2756 0 1 1 6.55 0z" id="use6945" style="fill:#222222" transform="translate(63.758 18.873)"  />
<path d="m136.13 441.65a3.2756 3.2756 0 1 1 -6.55 0 3.2756 3.2756 0 1 1 6.55 0z" id="use6947" style="fill:#222222" transform="translate(63.758 28.7)"  />
<path d="m136.13 441.65a3.2756 3.2756 0 1 1 -6.55 0 3.2756 3.2756 0 1 1 6.55 0z" id="use6949" style="fill:#222222" transform="translate(73.585 -10.607)"  />
<path d="m136.13 441.65a3.2756 3.2756 0 1 1 -6.55 0 3.2756 3.2756 0 1 1 6.55 0z" id="use6951" style="fill:#222222" transform="translate(73.585 -.77992)"  />
<path d="m136.13 441.65a3.2756 3.2756 0 1 1 -6.55 0 3.2756 3.2756 0 1 1 6.55 0z" id="use6953" style="fill:#222222" transform="translate(73.585 9.0468)"  />
<path d="m136.13 441.65a3.2756 3.2756 0 1 1 -6.55 0 3.2756 3.2756 0 1 1 6.55 0z" id="use6955" style="fill:#222222" transform="translate(73.585 18.873)"  />
<path d="m136.13 441.65a3.2756 3.2756 0 1 1 -6.55 0 3.2756 3.2756 0 1 1 6.55 0z" id="use6957" style="fill:#222222" transform="translate(73.585 28.7)"  />
<path d="m136.13 441.65a3.2756 3.2756 0 1 1 -6.55 0 3.2756 3.2756 0 1 1 6.55 0z" id="use6959" style="fill:#222222" transform="translate(83.412 -10.607)"  />
<path d="m136.13 441.65a3.2756 3.2756 0 1 1 -6.55 0 3.2756 3.2756 0 1 1 6.55 0z" id="use6961" style="fill:#222222" transform="translate(83.412 -.77992)"  />
<path d="m136.13 441.65a3.2756 3.2756 0 1 1 -6.55 0 3.2756 3.2756 0 1 1 6.55 0z" id="use6963" style="fill:#222222" transform="translate(83.412 9.0468)"  />
<path d="m136.13 441.65a3.2756 3.2756 0 1 1 -6.55 0 3.2756 3.2756 0 1 1 6.55 0z" id="use6965" style="fill:#222222" transform="translate(83.412 18.873)"  />
<path d="m136.13 441.65a3.2756 3.2756 0 1 1 -6.55 0 3.2756 3.2756 0 1 1 6.55 0z" id="use6967" style="fill:#222222" transform="translate(83.412 28.7)"  />
<path d="m136.13 441.65a3.2756 3.2756 0 1 1 -6.55 0 3.2756 3.2756 0 1 1 6.55 0z" id="use6969" style="fill:#222222" transform="translate(93.238 -10.607)"  />
<path d="m136.13 441.65a3.2756 3.2756 0 1 1 -6.55 0 3.2756 3.2756 0 1 1 6.55 0z" id="use6971" style="fill:#222222" transform="translate(93.238 -.77992)"  />
<path d="m136.13 441.65a3.2756 3.2756 0 1 1 -6.55 0 3.2756 3.2756 0 1 1 6.55 0z" id="use6973" style="fill:#222222" transform="translate(93.238 9.0468)"  />
<path d="m136.13 441.65a3.2756 3.2756 0 1 1 -6.55 0 3.2756 3.2756 0 1 1 6.55 0z" id="use6975" style="fill:#222222" transform="translate(93.238 18.873)"  />
<path d="m136.13 441.65a3.2756 3.2756 0 1 1 -6.55 0 3.2756 3.2756 0 1 1 6.55 0z" id="use6977" style="fill:#222222" transform="translate(93.238 28.7)"  />
<path d="m136.13 441.65a3.2756 3.2756 0 1 1 -6.55 0 3.2756 3.2756 0 1 1 6.55 0z" id="use6979" style="fill:#222222" transform="translate(103.07 -10.607)"  />
<path d="m136.13 441.65a3.2756 3.2756 0 1 1 -6.55 0 3.2756 3.2756 0 1 1 6.55 0z" id="use6981" style="fill:#222222" transform="translate(103.07 -.77992)"  />
<path d="m136.13 441.65a3.2756 3.2756 0 1 1 -6.55 0 3.2756 3.2756 0 1 1 6.55 0z" id="use6983" style="fill:#222222" transform="translate(103.07 9.0468)"  />
<path d="m136.13 441.65a3.2756 3.2756 0 1 1 -6.55 0 3.2756 3.2756 0 1 1 6.55 0z" id="use6985" style="fill:#222222" transform="translate(103.07 18.873)"  />
<path d="m136.13 441.65a3.2756 3.2756 0 1 1 -6.55 0 3.2756 3.2756 0 1 1 6.55 0z" id="use6987" style="fill:#222222" transform="translate(103.07 28.7)"  />
<path d="m136.13 441.65a3.2756 3.2756 0 1 1 -6.55 0 3.2756 3.2756 0 1 1 6.55 0z" id="use6989" style="fill:#222222" transform="translate(112.89 -10.607)"  />
<path d="m136.13 441.65a3.2756 3.2756 0 1 1 -6.55 0 3.2756 3.2756 0 1 1 6.55 0z" id="use6991" style="fill:#222222" transform="translate(112.89 -.77992)"  />
<path d="m136.13 441.65a3.2756 3.2756 0 1 1 -6.55 0 3.2756 3.2756 0 1 1 6.55 0z" id="use6993" style="fill:#222222" transform="translate(112.89 9.0468)"  />
<path d="m136.13 441.65a3.2756 3.2756 0 1 1 -6.55 0 3.2756 3.2756 0 1 1 6.55 0z" id="use6995" style="fill:#222222" transform="translate(112.89 18.873)"  />
<path d="m136.13 441.65a3.2756 3.2756 0 1 1 -6.55 0 3.2756 3.2756 0 1 1 6.55 0z" id="use6997" style="fill:#222222" transform="translate(112.89 28.7)"  />
<path d="m136.13 441.65a3.2756 3.2756 0 1 1 -6.55 0 3.2756 3.2756 0 1 1 6.55 0z" id="use6999" style="fill:#222222" transform="translate(122.72 -10.607)"  />
<path d="m136.13 441.65a3.2756 3.2756 0 1 1 -6.55 0 3.2756 3.2756 0 1 1 6.55 0z" id="use7001" style="fill:#222222" transform="translate(122.72 -.77992)"  />
<path d="m136.13 441.65a3.2756 3.2756 0 1 1 -6.55 0 3.2756 3.2756 0 1 1 6.55 0z" id="use7003" style="fill:#222222" transform="translate(122.72 9.0468)"  />
<path d="m136.13 441.65a3.2756 3.2756 0 1 1 -6.55 0 3.2756 3.2756 0 1 1 6.55 0z" id="use7005" style="fill:#222222" transform="translate(122.72 18.873)"  />
<path d="m136.13 441.65a3.2756 3.2756 0 1 1 -6.55 0 3.2756 3.2756 0 1 1 6.55 0z" id="use7007" style="fill:#222222" transform="translate(122.72 28.7)"  />
<path d="m136.13 441.65a3.2756 3.2756 0 1 1 -6.55 0 3.2756 3.2756 0 1 1 6.55 0z" id="use7009" style="fill:#222222" transform="translate(132.55 -10.607)"  />
<path d="m136.13 441.65a3.2756 3.2756 0 1 1 -6.55 0 3.2756 3.2756 0 1 1 6.55 0z" id="use7011" style="fill:#222222" transform="translate(132.55 -.77992)"  />
<path d="m136.13 441.65a3.2756 3.2756 0 1 1 -6.55 0 3.2756 3.2756 0 1 1 6.55 0z" id="use7013" style="fill:#222222" transform="translate(132.55 9.0468)"  />
<path d="m136.13 441.65a3.2756 3.2756 0 1 1 -6.55 0 3.2756 3.2756 0 1 1 6.55 0z" id="use7015" style="fill:#222222" transform="translate(132.55 18.873)"  />
<path d="m136.13 441.65a3.2756 3.2756 0 1 1 -6.55 0 3.2756 3.2756 0 1 1 6.55 0z" id="use7017" style="fill:#222222" transform="translate(132.55 28.7)"  />
<path d="m136.13 441.65a3.2756 3.2756 0 1 1 -6.55 0 3.2756 3.2756 0 1 1 6.55 0z" id="use7019" style="fill:#222222" transform="translate(142.37 -10.607)"  />
<path d="m136.13 441.65a3.2756 3.2756 0 1 1 -6.55 0 3.2756 3.2756 0 1 1 6.55 0z" id="use7021" style="fill:#222222" transform="translate(142.37 -.77992)"  />
<path d="m136.13 441.65a3.2756 3.2756 0 1 1 -6.55 0 3.2756 3.2756 0 1 1 6.55 0z" id="use7023" style="fill:#222222" transform="translate(142.37 9.0468)"  />
<path d="m136.13 441.65a3.2756 3.2756 0 1 1 -6.55 0 3.2756 3.2756 0 1 1 6.55 0z" id="use7025" style="fill:#222222" transform="translate(142.37 18.873)"  />
<path d="m136.13 441.65a3.2756 3.2756 0 1 1 -6.55 0 3.2756 3.2756 0 1 1 6.55 0z" id="use7027" style="fill:#222222" transform="translate(142.37 28.7)"  />
<path d="m136.13 441.65a3.2756 3.2756 0 1 1 -6.55 0 3.2756 3.2756 0 1 1 6.55 0z" id="use7029" style="fill:#222222" transform="translate(152.2 -10.607)"  />
<path d="m136.13 441.65a3.2756 3.2756 0 1 1 -6.55 0 3.2756 3.2756 0 1 1 6.55 0z" id="use7031" style="fill:#222222" transform="translate(152.2 -.77992)"  />
<path d="m136.13 441.65a3.2756 3.2756 0 1 1 -6.55 0 3.2756 3.2756 0 1 1 6.55 0z" id="use7033" style="fill:#222222" transform="translate(152.2 9.0468)"  />
<path d="m136.13 441.65a3.2756 3.2756 0 1 1 -6.55 0 3.2756 3.2756 0 1 1 6.55 0z" id="use7035" style="fill:#222222" transform="translate(152.2 18.873)"  />
<path d="m136.13 441.65a3.2756 3.2756 0 1 1 -6.55 0 3.2756 3.2756 0 1 1 6.55 0z" id="use7037" style="fill:#222222" transform="translate(152.2 28.7)"  />
<path d="m136.13 441.65a3.2756 3.2756 0 1 1 -6.55 0 3.2756 3.2756 0 1 1 6.55 0z" id="use7039" style="fill:#222222" transform="translate(162.03 -10.607)"  />
<path d="m136.13 441.65a3.2756 3.2756 0 1 1 -6.55 0 3.2756 3.2756 0 1 1 6.55 0z" id="use7041" style="fill:#222222" transform="translate(162.03 -.77992)"  />
<path d="m136.13 441.65a3.2756 3.2756 0 1 1 -6.55 0 3.2756 3.2756 0 1 1 6.55 0z" id="use7043" style="fill:#222222" transform="translate(162.03 9.0468)"  />
<path d="m136.13 441.65a3.2756 3.2756 0 1 1 -6.55 0 3.2756 3.2756 0 1 1 6.55 0z" id="use7045" style="fill:#222222" transform="translate(162.03 18.873)"  />
<path d="m136.13 441.65a3.2756 3.2756 0 1 1 -6.55 0 3.2756 3.2756 0 1 1 6.55 0z" id="use7047" style="fill:#222222" transform="translate(162.03 28.7)"  />
<path d="m136.13 441.65a3.2756 3.2756 0 1 1 -6.55 0 3.2756 3.2756 0 1 1 6.55 0z" id="use7049" style="fill:#222222" transform="translate(171.85 -10.607)"  />
<path d="m136.13 441.65a3.2756 3.2756 0 1 1 -6.55 0 3.2756 3.2756 0 1 1 6.55 0z" id="use7051" style="fill:#222222" transform="translate(171.85 -.77992)"  />
<path d="m136.13 441.65a3.2756 3.2756 0 1 1 -6.55 0 3.2756 3.2756 0 1 1 6.55 0z" id="use7053" style="fill:#222222" transform="translate(171.85 9.0468)"  />
<path d="m136.13 441.65a3.2756 3.2756 0 1 1 -6.55 0 3.2756 3.2756 0 1 1 6.55 0z" id="use7055" style="fill:#222222" transform="translate(171.85 18.873)"  />
<path d="m136.13 441.65a3.2756 3.2756 0 1 1 -6.55 0 3.2756 3.2756 0 1 1 6.55 0z" id="use7057" style="fill:#222222" transform="translate(171.85 28.7)"  />
<path d="m136.13 441.65a3.2756 3.2756 0 1 1 -6.55 0 3.2756 3.2756 0 1 1 6.55 0z" id="use7059" style="fill:#222222" transform="translate(181.68 -10.607)"  />
<path d="m136.13 441.65a3.2756 3.2756 0 1 1 -6.55 0 3.2756 3.2756 0 1 1 6.55 0z" id="use7061" style="fill:#222222" transform="translate(181.68 -.77992)"  />
<path d="m136.13 441.65a3.2756 3.2756 0 1 1 -6.55 0 3.2756 3.2756 0 1 1 6.55 0z" id="use7063" style="fill:#222222" transform="translate(181.68 9.0468)"  />
<path d="m136.13 441.65a3.2756 3.2756 0 1 1 -6.55 0 3.2756 3.2756 0 1 1 6.55 0z" id="use7065" style="fill:#222222" transform="translate(181.68 18.873)"  />
<path d="m136.13 441.65a3.2756 3.2756 0 1 1 -6.55 0 3.2756 3.2756 0 1 1 6.55 0z" id="use7067" style="fill:#222222" transform="translate(181.68 28.7)"  />
<path d="m136.13 441.65a3.2756 3.2756 0 1 1 -6.55 0 3.2756 3.2756 0 1 1 6.55 0z" id="use7069" style="fill:#222222" transform="translate(191.51 -10.607)"  />
<path d="m136.13 441.65a3.2756 3.2756 0 1 1 -6.55 0 3.2756 3.2756 0 1 1 6.55 0z" id="use7071" style="fill:#222222" transform="translate(191.51 -.77992)"  />
<path d="m136.13 441.65a3.2756 3.2756 0 1 1 -6.55 0 3.2756 3.2756 0 1 1 6.55 0z" id="use7073" style="fill:#222222" transform="translate(191.51 9.0468)"  />
<path d="m136.13 441.65a3.2756 3.2756 0 1 1 -6.55 0 3.2756 3.2756 0 1 1 6.55 0z" id="use7075" style="fill:#222222" transform="translate(191.51 18.873)"  />
<path d="m136.13 441.65a3.2756 3.2756 0 1 1 -6.55 0 3.2756 3.2756 0 1 1 6.55 0z" id="use7077" style="fill:#222222" transform="translate(191.51 28.7)"  />
<path d="m136.13 441.65a3.2756 3.2756 0 1 1 -6.55 0 3.2756 3.2756 0 1 1 6.55 0z" id="use7079" style="fill:#222222" transform="translate(201.33 -10.607)"  />
<path d="m136.13 441.65a3.2756 3.2756 0 1 1 -6.55 0 3.2756 3.2756 0 1 1 6.55 0z" id="use7081" style="fill:#222222" transform="translate(201.33 -.77992)"  />
<path d="m136.13 441.65a3.2756 3.2756 0 1 1 -6.55 0 3.2756 3.2756 0 1 1 6.55 0z" id="use7083" style="fill:#222222" transform="translate(201.33 9.0468)"  />
<path d="m136.13 441.65a3.2756 3.2756 0 1 1 -6.55 0 3.2756 3.2756 0 1 1 6.55 0z" id="use7085" style="fill:#222222" transform="translate(201.33 18.873)"  />
<path d="m136.13 441.65a3.2756 3.2756 0 1 1 -6.55 0 3.2756 3.2756 0 1 1 6.55 0z" id="use7087" style="fill:#222222" transform="translate(201.33 28.7)"  />
<path d="m136.13 441.65a3.2756 3.2756 0 1 1 -6.55 0 3.2756 3.2756 0 1 1 6.55 0z" id="use7089" style="fill:#222222" transform="translate(211.16 -10.607)"  />
<path d="m136.13 441.65a3.2756 3.2756 0 1 1 -6.55 0 3.2756 3.2756 0 1 1 6.55 0z" id="use7091" style="fill:#222222" transform="translate(211.16 -.77992)"  />
<path d="m136.13 441.65a3.2756 3.2756 0 1 1 -6.55 0 3.2756 3.2756 0 1 1 6.55 0z" id="use7093" style="fill:#222222" transform="translate(211.16 9.0468)"  />
<path d="m136.13 441.65a3.2756 3.2756 0 1 1 -6.55 0 3.2756 3.2756 0 1 1 6.55 0z" id="use7095" style="fill:#222222" transform="translate(211.16 18.873)"  />
<path d="m136.13 441.65a3.2756 3.2756 0 1 1 -6.55 0 3.2756 3.2756 0 1 1 6.55 0z" id="use7097" style="fill:#222222" transform="translate(211.16 28.7)"  />
<path d="m136.13 441.65a3.2756 3.2756 0 1 1 -6.55 0 3.2756 3.2756 0 1 1 6.55 0z" id="use7099" style="fill:#222222" transform="translate(220.99 -10.607)"  />
<path d="m136.13 441.65a3.2756 3.2756 0 1 1 -6.55 0 3.2756 3.2756 0 1 1 6.55 0z" id="use7101" style="fill:#222222" transform="translate(220.99 -.77992)"  />
<path d="m136.13 441.65a3.2756 3.2756 0 1 1 -6.55 0 3.2756 3.2756 0 1 1 6.55 0z" id="use7103" style="fill:#222222" transform="translate(220.99 9.0468)"  />
<path d="m136.13 441.65a3.2756 3.2756 0 1 1 -6.55 0 3.2756 3.2756 0 1 1 6.55 0z" id="use7105" style="fill:#222222" transform="translate(220.99 18.873)"  />
<path d="m136.13 441.65a3.2756 3.2756 0 1 1 -6.55 0 3.2756 3.2756 0 1 1 6.55 0z" id="use7107" style="fill:#222222" transform="translate(220.99 28.7)"  />
<path d="m136.13 441.65a3.2756 3.2756 0 1 1 -6.55 0 3.2756 3.2756 0 1 1 6.55 0z" id="use7109" style="fill:#222222" transform="translate(230.81 -10.607)"  />
<path d="m136.13 441.65a3.2756 3.2756 0 1 1 -6.55 0 3.2756 3.2756 0 1 1 6.55 0z" id="use7111" style="fill:#222222" transform="translate(230.81 -.77992)"  />
<path d="m136.13 441.65a3.2756 3.2756 0 1 1 -6.55 0 3.2756 3.2756 0 1 1 6.55 0z" id="use7113" style="fill:#222222" transform="translate(230.81 9.0468)"  />
<path d="m136.13 441.65a3.2756 3.2756 0 1 1 -6.55 0 3.2756 3.2756 0 1 1 6.55 0z" id="use7115" style="fill:#222222" transform="translate(230.81 18.873)"  />
<path d="m136.13 441.65a3.2756 3.2756 0 1 1 -6.55 0 3.2756 3.2756 0 1 1 6.55 0z" id="use7117" style="fill:#222222" transform="translate(230.81 28.7)"  />
<path d="m136.13 441.65a3.2756 3.2756 0 1 1 -6.55 0 3.2756 3.2756 0 1 1 6.55 0z" id="use7119" style="fill:#222222" transform="translate(240.64 -10.607)"  />
<path d="m136.13 441.65a3.2756 3.2756 0 1 1 -6.55 0 3.2756 3.2756 0 1 1 6.55 0z" id="use7127" style="fill:#222222" transform="translate(240.64 28.7)"  />
<path d="m136.13 441.65a3.2756 3.2756 0 1 1 -6.55 0 3.2756 3.2756 0 1 1 6.55 0z" id="use7169" style="fill:#222222" transform="translate(289.77 -10.607)"  />
<path d="m136.13 441.65a3.2756 3.2756 0 1 1 -6.55 0 3.2756 3.2756 0 1 1 6.55 0z" id="use7177" style="fill:#222222" transform="translate(289.77 28.7)"  />
<path d="m136.13 441.65a3.2756 3.2756 0 1 1 -6.55 0 3.2756 3.2756 0 1 1 6.55 0z" id="use7179" style="fill:#222222" transform="translate(299.6 -10.607)"  />
<path d="m136.13 441.65a3.2756 3.2756 0 1 1 -6.55 0 3.2756 3.2756 0 1 1 6.55 0z" id="use7181" style="fill:#222222" transform="translate(299.6 -.77992)"  />
<path d="m136.13 441.65a3.2756 3.2756 0 1 1 -6.55 0 3.2756 3.2756 0 1 1 6.55 0z" id="use7183" style="fill:#222222" transform="translate(299.6 9.0468)"  />
<path d="m136.13 441.65a3.2756 3.2756 0 1 1 -6.55 0 3.2756 3.2756 0 1 1 6.55 0z" id="use7185" style="fill:#222222" transform="translate(299.6 18.873)"  />
<path d="m136.13 441.65a3.2756 3.2756 0 1 1 -6.55 0 3.2756 3.2756 0 1 1 6.55 0z" id="use7187" style="fill:#222222" transform="translate(299.6 28.7)"  />
<path d="m136.13 441.65a3.2756 3.2756 0 1 1 -6.55 0 3.2756 3.2756 0 1 1 6.55 0z" id="use7189" style="fill:#222222" transform="translate(309.43 -10.607)"  />
<path d="m136.13 441.65a3.2756 3.2756 0 1 1 -6.55 0 3.2756 3.2756 0 1 1 6.55 0z" id="use7191" style="fill:#222222" transform="translate(309.43 -.77992)"  />
<path d="m136.13 441.65a3.2756 3.2756 0 1 1 -6.55 0 3.2756 3.2756 0 1 1 6.55 0z" id="use7193" style="fill:#222222" transform="translate(309.43 9.0468)"  />
<path d="m136.13 441.65a3.2756 3.2756 0 1 1 -6.55 0 3.2756 3.2756 0 1 1 6.55 0z" id="use7195" style="fill:#222222" transform="translate(309.43 18.873)"  />
<path d="m136.13 441.65a3.2756 3.2756 0 1 1 -6.55 0 3.2756 3.2756 0 1 1 6.55 0z" id="use7197" style="fill:#222222" transform="translate(309.43 28.7)"  />
<path d="m136.13 441.65a3.2756 3.2756 0 1 1 -6.55 0 3.2756 3.2756 0 1 1 6.55 0z" id="use7199" style="fill:#222222" transform="translate(319.25 -10.607)"  />
<path d="m136.13 441.65a3.2756 3.2756 0 1 1 -6.55 0 3.2756 3.2756 0 1 1 6.55 0z" id="use7201" style="fill:#222222" transform="translate(319.25 -.77992)"  />
<path d="m136.13 441.65a3.2756 3.2756 0 1 1 -6.55 0 3.2756 3.2756 0 1 1 6.55 0z" id="use7203" style="fill:#222222" transform="translate(319.25 9.0468)"  />
<path d="m136.13 441.65a3.2756 3.2756 0 1 1 -6.55 0 3.2756 3.2756 0 1 1 6.55 0z" id="use7205" style="fill:#222222" transform="translate(319.25 18.873)"  />
<path d="m136.13 441.65a3.2756 3.2756 0 1 1 -6.55 0 3.2756 3.2756 0 1 1 6.55 0z" id="use7207" style="fill:#222222" transform="translate(319.25 28.7)"  />
<path d="m136.13 441.65a3.2756 3.2756 0 1 1 -6.55 0 3.2756 3.2756 0 1 1 6.55 0z" id="use7209" style="fill:#222222" transform="translate(329.08 -10.607)"  />
<path d="m136.13 441.65a3.2756 3.2756 0 1 1 -6.55 0 3.2756 3.2756 0 1 1 6.55 0z" id="use7211" style="fill:#222222" transform="translate(329.08 -.77992)"  />
<path d="m136.13 441.65a3.2756 3.2756 0 1 1 -6.55 0 3.2756 3.2756 0 1 1 6.55 0z" id="use7213" style="fill:#222222" transform="translate(329.08 9.0468)"  />
<path d="m136.13 441.65a3.2756 3.2756 0 1 1 -6.55 0 3.2756 3.2756 0 1 1 6.55 0z" id="use7215" style="fill:#222222" transform="translate(329.08 18.873)"  />
<path d="m136.13 441.65a3.2756 3.2756 0 1 1 -6.55 0 3.2756 3.2756 0 1 1 6.55 0z" id="use7217" style="fill:#222222" transform="translate(329.08 28.7)"  />
<path d="m136.13 441.65a3.2756 3.2756 0 1 1 -6.55 0 3.2756 3.2756 0 1 1 6.55 0z" id="use7219" style="fill:#222222" transform="translate(338.91 -10.607)"  />
<path d="m136.13 441.65a3.2756 3.2756 0 1 1 -6.55 0 3.2756 3.2756 0 1 1 6.55 0z" id="use7221" style="fill:#222222" transform="translate(338.91 -.77992)"  />
<path d="m136.13 441.65a3.2756 3.2756 0 1 1 -6.55 0 3.2756 3.2756 0 1 1 6.55 0z" id="use7223" style="fill:#222222" transform="translate(338.91 9.0468)"  />
<path d="m136.13 441.65a3.2756 3.2756 0 1 1 -6.55 0 3.2756 3.2756 0 1 1 6.55 0z" id="use7225" style="fill:#222222" transform="translate(338.91 18.873)"  />
<path d="m136.13 441.65a3.2756 3.2756 0 1 1 -6.55 0 3.2756 3.2756 0 1 1 6.55 0z" id="use7227" style="fill:#222222" transform="translate(338.91 28.7)"  />
<path d="m136.13 441.65a3.2756 3.2756 0 1 1 -6.55 0 3.2756 3.2756 0 1 1 6.55 0z" id="use7229" style="fill:#222222" transform="translate(348.73 -10.607)"  />
<path d="m136.13 441.65a3.2756 3.2756 0 1 1 -6.55 0 3.2756 3.2756 0 1 1 6.55 0z" id="use7231" style="fill:#222222" transform="translate(348.73 -.77992)"  />
<path d="m136.13 441.65a3.2756 3.2756 0 1 1 -6.55 0 3.2756 3.2756 0 1 1 6.55 0z" id="use7233" style="fill:#222222" transform="translate(348.73 9.0468)"  />
<path d="m136.13 441.65a3.2756 3.2756 0 1 1 -6.55 0 3.2756 3.2756 0 1 1 6.55 0z" id="use7235" style="fill:#222222" transform="translate(348.73 18.873)"  />
<path d="m136.13 441.65a3.2756 3.2756 0 1 1 -6.55 0 3.2756 3.2756 0 1 1 6.55 0z" id="use7237" style="fill:#222222" transform="translate(348.73 28.7)"  />
<path d="m136.13 441.65a3.2756 3.2756 0 1 1 -6.55 0 3.2756 3.2756 0 1 1 6.55 0z" id="use7239" style="fill:#222222" transform="translate(358.56 -10.607)"  />
<path d="m136.13 441.65a3.2756 3.2756 0 1 1 -6.55 0 3.2756 3.2756 0 1 1 6.55 0z" id="use7241" style="fill:#222222" transform="translate(358.56 -.77992)"  />
<path d="m136.13 441.65a3.2756 3.2756 0 1 1 -6.55 0 3.2756 3.2756 0 1 1 6.55 0z" id="use7243" style="fill:#222222" transform="translate(358.56 9.0468)"  />
<path d="m136.13 441.65a3.2756 3.2756 0 1 1 -6.55 0 3.2756 3.2756 0 1 1 6.55 0z" id="use7245" style="fill:#222222" transform="translate(358.56 18.873)"  />
<path d="m136.13 441.65a3.2756 3.2756 0 1 1 -6.55 0 3.2756 3.2756 0 1 1 6.55 0z" id="use7247" style="fill:#222222" transform="translate(358.56 28.7)"  />
<path d="m136.13 441.65a3.2756 3.2756 0 1 1 -6.55 0 3.2756 3.2756 0 1 1 6.55 0z" id="use7249" style="fill:#222222" transform="translate(368.39 -10.607)"  />
<path d="m136.13 441.65a3.2756 3.2756 0 1 1 -6.55 0 3.2756 3.2756 0 1 1 6.55 0z" id="use7251" style="fill:#222222" transform="translate(368.39 -.77992)"  />
<path d="m136.13 441.65a3.2756 3.2756 0 1 1 -6.55 0 3.2756 3.2756 0 1 1 6.55 0z" id="use7253" style="fill:#222222" transform="translate(368.39 9.0468)"  />
<path d="m136.13 441.65a3.2756 3.2756 0 1 1 -6.55 0 3.2756 3.2756 0 1 1 6.55 0z" id="use7255" style="fill:#222222" transform="translate(368.39 18.873)"  />
<path d="m136.13 441.65a3.2756 3.2756 0 1 1 -6.55 0 3.2756 3.2756 0 1 1 6.55 0z" id="use7257" style="fill:#222222" transform="translate(368.39 28.7)"  />
<path d="m136.13 441.65a3.2756 3.2756 0 1 1 -6.55 0 3.2756 3.2756 0 1 1 6.55 0z" id="use7259" style="fill:#222222" transform="translate(378.21 -10.607)"  />
<path d="m136.13 441.65a3.2756 3.2756 0 1 1 -6.55 0 3.2756 3.2756 0 1 1 6.55 0z" id="use7261" style="fill:#222222" transform="translate(378.21 -.77992)"  />
<path d="m136.13 441.65a3.2756 3.2756 0 1 1 -6.55 0 3.2756 3.2756 0 1 1 6.55 0z" id="use7263" style="fill:#222222" transform="translate(378.21 9.0468)"  />
<path d="m136.13 441.65a3.2756 3.2756 0 1 1 -6.55 0 3.2756 3.2756 0 1 1 6.55 0z" id="use7265" style="fill:#222222" transform="translate(378.21 18.873)"  />
<path d="m136.13 441.65a3.2756 3.2756 0 1 1 -6.55 0 3.2756 3.2756 0 1 1 6.55 0z" id="use7267" style="fill:#222222" transform="translate(378.21 28.7)"  />
<path d="m136.13 441.65a3.2756 3.2756 0 1 1 -6.55 0 3.2756 3.2756 0 1 1 6.55 0z" id="use7269" style="fill:#222222" transform="translate(388.04 -10.607)"  />
<path d="m136.13 441.65a3.2756 3.2756 0 1 1 -6.55 0 3.2756 3.2756 0 1 1 6.55 0z" id="use7271" style="fill:#222222" transform="translate(388.04 -.77992)"  />
<path d="m136.13 441.65a3.2756 3.2756 0 1 1 -6.55 0 3.2756 3.2756 0 1 1 6.55 0z" id="use7273" style="fill:#222222" transform="translate(388.04 9.0468)"  />
<path d="m136.13 441.65a3.2756 3.2756 0 1 1 -6.55 0 3.2756 3.2756 0 1 1 6.55 0z" id="use7275" style="fill:#222222" transform="translate(388.04 18.873)"  />
<path d="m136.13 441.65a3.2756 3.2756 0 1 1 -6.55 0 3.2756 3.2756 0 1 1 6.55 0z" id="use7277" style="fill:#222222" transform="translate(388.04 28.7)"  />
<path d="m136.13 441.65a3.2756 3.2756 0 1 1 -6.55 0 3.2756 3.2756 0 1 1 6.55 0z" id="use7279" style="fill:#222222" transform="translate(397.87 -10.607)"  />
<path d="m136.13 441.65a3.2756 3.2756 0 1 1 -6.55 0 3.2756 3.2756 0 1 1 6.55 0z" id="use7281" style="fill:#222222" transform="translate(397.87 -.77992)"  />
<path d="m136.13 441.65a3.2756 3.2756 0 1 1 -6.55 0 3.2756 3.2756 0 1 1 6.55 0z" id="use7283" style="fill:#222222" transform="translate(397.87 9.0468)"  />
<path d="m136.13 441.65a3.2756 3.2756 0 1 1 -6.55 0 3.2756 3.2756 0 1 1 6.55 0z" id="use7285" style="fill:#222222" transform="translate(397.87 18.873)"  />
<path d="m136.13 441.65a3.2756 3.2756 0 1 1 -6.55 0 3.2756 3.2756 0 1 1 6.55 0z" id="use7287" style="fill:#222222" transform="translate(397.87 28.7)"  />
<path d="m136.13 441.65a3.2756 3.2756 0 1 1 -6.55 0 3.2756 3.2756 0 1 1 6.55 0z" id="use7289" style="fill:#222222" transform="translate(407.69 -10.607)"  />
<path d="m136.13 441.65a3.2756 3.2756 0 1 1 -6.55 0 3.2756 3.2756 0 1 1 6.55 0z" id="use7291" style="fill:#222222" transform="translate(407.69 -.77992)"  />
<path d="m136.13 441.65a3.2756 3.2756 0 1 1 -6.55 0 3.2756 3.2756 0 1 1 6.55 0z" id="use7293" style="fill:#222222" transform="translate(407.69 9.0468)"  />
<path d="m136.13 441.65a3.2756 3.2756 0 1 1 -6.55 0 3.2756 3.2756 0 1 1 6.55 0z" id="use7295" style="fill:#222222" transform="translate(407.69 18.873)"  />
<path d="m136.13 441.65a3.2756 3.2756 0 1 1 -6.55 0 3.2756 3.2756 0 1 1 6.55 0z" id="use7297" style="fill:#222222" transform="translate(407.69 28.7)"  />
<path d="m136.13 441.65a3.2756 3.2756 0 1 1 -6.55 0 3.2756 3.2756 0 1 1 6.55 0z" id="use7299" style="fill:#222222" transform="translate(417.52 -10.607)"  />
<path d="m136.13 441.65a3.2756 3.2756 0 1 1 -6.55 0 3.2756 3.2756 0 1 1 6.55 0z" id="use7301" style="fill:#222222" transform="translate(417.52 -.77992)"  />
<path d="m136.13 441.65a3.2756 3.2756 0 1 1 -6.55 0 3.2756 3.2756 0 1 1 6.55 0z" id="use7303" style="fill:#222222" transform="translate(417.52 9.0468)"  />
<path d="m136.13 441.65a3.2756 3.2756 0 1 1 -6.55 0 3.2756 3.2756 0 1 1 6.55 0z" id="use7305" style="fill:#222222" transform="translate(417.52 18.873)"  />
<path d="m136.13 441.65a3.2756 3.2756 0 1 1 -6.55 0 3.2756 3.2756 0 1 1 6.55 0z" id="use7307" style="fill:#222222" transform="translate(417.52 28.7)"  />
<path d="m136.13 441.65a3.2756 3.2756 0 1 1 -6.55 0 3.2756 3.2756 0 1 1 6.55 0z" id="use7309" style="fill:#222222" transform="translate(427.35 -10.607)"  />
<path d="m136.13 441.65a3.2756 3.2756 0 1 1 -6.55 0 3.2756 3.2756 0 1 1 6.55 0z" id="use7311" style="fill:#222222" transform="translate(427.35 -.77992)"  />
<path d="m136.13 441.65a3.2756 3.2756 0 1 1 -6.55 0 3.2756 3.2756 0 1 1 6.55 0z" id="use7313" style="fill:#222222" transform="translate(427.35 9.0468)"  />
<path d="m136.13 441.65a3.2756 3.2756 0 1 1 -6.55 0 3.2756 3.2756 0 1 1 6.55 0z" id="use7315" style="fill:#222222" transform="translate(427.35 18.873)"  />
<path d="m136.13 441.65a3.2756 3.2756 0 1 1 -6.55 0 3.2756 3.2756 0 1 1 6.55 0z" id="use7317" style="fill:#222222" transform="translate(427.35 28.7)"  />
<path d="m136.13 441.65a3.2756 3.2756 0 1 1 -6.55 0 3.2756 3.2756 0 1 1 6.55 0z" id="use7319" style="fill:#222222" transform="translate(437.17 -10.607)"  />
<path d="m136.13 441.65a3.2756 3.2756 0 1 1 -6.55 0 3.2756 3.2756 0 1 1 6.55 0z" id="use7321" style="fill:#222222" transform="translate(437.17 -.77992)"  />
<path d="m136.13 441.65a3.2756 3.2756 0 1 1 -6.55 0 3.2756 3.2756 0 1 1 6.55 0z" id="use7323" style="fill:#222222" transform="translate(437.17 9.0468)"  />
<path d="m136.13 441.65a3.2756 3.2756 0 1 1 -6.55 0 3.2756 3.2756 0 1 1 6.55 0z" id="use7325" style="fill:#222222" transform="translate(437.17 18.873)"  />
<path d="m136.13 441.65a3.2756 3.2756 0 1 1 -6.55 0 3.2756 3.2756 0 1 1 6.55 0z" id="use7327" style="fill:#222222" transform="translate(437.17 28.7)"  />
<path d="m136.13 441.65a3.2756 3.2756 0 1 1 -6.55 0 3.2756 3.2756 0 1 1 6.55 0z" id="use7329" style="fill:#222222" transform="translate(447 -10.607)"  />
<path d="m136.13 441.65a3.2756 3.2756 0 1 1 -6.55 0 3.2756 3.2756 0 1 1 6.55 0z" id="use7331" style="fill:#222222" transform="translate(447 -.77992)"  />
<path d="m136.13 441.65a3.2756 3.2756 0 1 1 -6.55 0 3.2756 3.2756 0 1 1 6.55 0z" id="use7333" style="fill:#222222" transform="translate(447 9.0468)"  />
<path d="m136.13 441.65a3.2756 3.2756 0 1 1 -6.55 0 3.2756 3.2756 0 1 1 6.55 0z" id="use7335" style="fill:#222222" transform="translate(447 18.873)"  />
<path d="m136.13 441.65a3.2756 3.2756 0 1 1 -6.55 0 3.2756 3.2756 0 1 1 6.55 0z" id="use7337" style="fill:#222222" transform="translate(447 28.7)"  />
<path d="m136.13 441.65a3.2756 3.2756 0 1 1 -6.55 0 3.2756 3.2756 0 1 1 6.55 0z" id="use7339" style="fill:#222222" transform="translate(456.83 -10.607)"  />
<path d="m136.13 441.65a3.2756 3.2756 0 1 1 -6.55 0 3.2756 3.2756 0 1 1 6.55 0z" id="use7341" style="fill:#222222" transform="translate(456.83 -.77992)"  />
<path d="m136.13 441.65a3.2756 3.2756 0 1 1 -6.55 0 3.2756 3.2756 0 1 1 6.55 0z" id="use7343" style="fill:#222222" transform="translate(456.83 9.0468)"  />
<path d="m136.13 441.65a3.2756 3.2756 0 1 1 -6.55 0 3.2756 3.2756 0 1 1 6.55 0z" id="use7345" style="fill:#222222" transform="translate(456.83 18.873)"  />
<path d="m136.13 441.65a3.2756 3.2756 0 1 1 -6.55 0 3.2756 3.2756 0 1 1 6.55 0z" id="use7347" style="fill:#222222" transform="translate(456.83 28.7)"  />
<path d="m136.13 441.65a3.2756 3.2756 0 1 1 -6.55 0 3.2756 3.2756 0 1 1 6.55 0z" id="use7349" style="fill:#222222" transform="translate(466.65 -10.607)"  />
<path d="m136.13 441.65a3.2756 3.2756 0 1 1 -6.55 0 3.2756 3.2756 0 1 1 6.55 0z" id="use7355" style="fill:#222222" transform="translate(466.65 18.873)"  />
<path d="m136.13 441.65a3.2756 3.2756 0 1 1 -6.55 0 3.2756 3.2756 0 1 1 6.55 0z" id="use7357" style="fill:#222222" transform="translate(466.65 28.7)"  />
<path d="m136.13 441.65a3.2756 3.2756 0 1 1 -6.55 0 3.2756 3.2756 0 1 1 6.55 0z" id="use7359" style="fill:#222222" transform="translate(476.48 -10.607)"  />
<path d="m136.13 441.65a3.2756 3.2756 0 1 1 -6.55 0 3.2756 3.2756 0 1 1 6.55 0z" id="use7365" style="fill:#222222" transform="translate(476.48 18.873)"  />
<path d="m136.13 441.65a3.2756 3.2756 0 1 1 -6.55 0 3.2756 3.2756 0 1 1 6.55 0z" id="use7367" style="fill:#222222" transform="translate(476.48 28.7)"  />
<path d="m136.13 441.65a3.2756 3.2756 0 1 1 -6.55 0 3.2756 3.2756 0 1 1 6.55 0z" id="use7369" style="fill:#222222" transform="translate(486.31 -10.607)"  />
<path d="m136.13 441.65a3.2756 3.2756 0 1 1 -6.55 0 3.2756 3.2756 0 1 1 6.55 0z" id="use7375" style="fill:#222222" transform="translate(486.31 18.873)"  />
<path d="m136.13 441.65a3.2756 3.2756 0 1 1 -6.55 0 3.2756 3.2756 0 1 1 6.55 0z" id="use7377" style="fill:#222222" transform="translate(486.31 28.7)"  />
<path d="m136.13 441.65a3.2756 3.2756 0 1 1 -6.55 0 3.2756 3.2756 0 1 1 6.55 0z" id="use7379" style="fill:#222222" transform="translate(496.13 -10.607)"  />
<path d="m136.13 441.65a3.2756 3.2756 0 1 1 -6.55 0 3.2756 3.2756 0 1 1 6.55 0z" id="use7385" style="fill:#222222" transform="translate(496.13 18.873)"  />
<path d="m136.13 441.65a3.2756 3.2756 0 1 1 -6.55 0 3.2756 3.2756 0 1 1 6.55 0z" id="use7387" style="fill:#222222" transform="translate(496.13 28.7)"  />
<path d="m136.13 441.65a3.2756 3.2756 0 1 1 -6.55 0 3.2756 3.2756 0 1 1 6.55 0z" id="use7389" style="fill:#222222" transform="translate(505.96 -10.607)"  />
<path d="m136.13 441.65a3.2756 3.2756 0 1 1 -6.55 0 3.2756 3.2756 0 1 1 6.55 0z" id="use7395" style="fill:#222222" transform="translate(505.96 18.873)"  />
<path d="m136.13 441.65a3.2756 3.2756 0 1 1 -6.55 0 3.2756 3.2756 0 1 1 6.55 0z" id="use7397" style="fill:#222222" transform="translate(505.96 28.7)"  />
<path d="m136.13 441.65a3.2756 3.2756 0 1 1 -6.55 0 3.2756 3.2756 0 1 1 6.55 0z" id="use7399" style="fill:#222222" transform="translate(515.79 -10.607)"  />
<path d="m136.13 441.65a3.2756 3.2756 0 1 1 -6.55 0 3.2756 3.2756 0 1 1 6.55 0z" id="use7401" style="fill:#222222" transform="translate(515.79 -.77992)"  />
<path d="m136.13 441.65a3.2756 3.2756 0 1 1 -6.55 0 3.2756 3.2756 0 1 1 6.55 0z" id="use7403" style="fill:#222222" transform="translate(515.79 9.0468)"  />
<path d="m136.13 441.65a3.2756 3.2756 0 1 1 -6.55 0 3.2756 3.2756 0 1 1 6.55 0z" id="use7405" style="fill:#222222" transform="translate(515.79 18.873)"  />
<path d="m136.13 441.65a3.2756 3.2756 0 1 1 -6.55 0 3.2756 3.2756 0 1 1 6.55 0z" id="use7407" style="fill:#222222" transform="translate(515.79 28.7)"  />
<g id="g7409" transform="matrix(1.1333 0 0 1 -89.595 -4.6193)"  >
<rect x="603.57" y="440.22" height="20.714" width="43.571" rx="9.3006" ry="10.357" id="rect3471" style="fill:#212121"  />
<rect x="604.21" y="440.6" height="19.867" width="42.372" rx="8.9604" ry="9.9337" id="rect3497" style="fill:#dbdbdb"  />
<rect x="604.68" y="440.91" height="19.245" width="41.456" rx="8.6305" ry="9.4886" id="rect3499" style="fill:#b7b7b7"  />
</g>
<path d="m414.29 447.36a18.571 18.571 0 1 1 -37.15 0 18.571 18.571 0 1 1 37.15 0z" id="path3451" style="fill:url(#radialGradient7709)" transform="matrix(1.2273 0 0 1.2273 -87.442 -98.362)"  />
<path d="m136.13 441.65a3.2756 3.2756 0 1 1 -6.55 0 3.2756 3.2756 0 1 1 6.55 0z" id="path3503" style="fill:#222222" transform="translate(4.7982 -10.607)"  />
<path d="m114.49 450.22a7.707 7.707 0 1 1 -15.411 0 7.707 7.707 0 1 1 15.411 0z" id="path7448" style="fill:#494949" transform="translate(1.0714)"  />
<path d="m114.49 450.22a7.707 7.707 0 1 1 -15.411 0 7.707 7.707 0 1 1 15.411 0z" id="path7450" style="fill:#494949" transform="translate(574.84)"  />
</g>
<metadata  />
</svg>
