<svg xmlns="http://www.w3.org/2000/svg" xmlns:xlink="http://www.w3.org/1999/xlink" width="2048" height="2048" preserveAspectRatio="xMidYMid meet" viewBox="0 0 2048 2048" style="-ms-transform: rotate(360deg); -webkit-transform: rotate(360deg); transform: rotate(360deg);"><path d="M96 294v1460h1856V294H96zm96 90.758h1660V737h-26v100h26v374h-26v100h26v345.299H192V1311h36v-100h-36V837h36V737h-36V384.758zM328 737v100h200V737H328zm300 0v100h200V737H628zm300 0v100h200V737H928zm300 0v100h200V737h-200zm300 0v100h200V737h-200zM328 1211v100h200v-100H328zm300 0v100h200v-100H628zm300 0v100h200v-100H928zm300 0v100h200v-100h-200zm300 0v100h200v-100h-200z" fill="#626262"/><rect x="0" y="0" width="2048" height="2048" fill="rgba(0, 0, 0, 0)" /></svg>