<?xml version="1.0" encoding="UTF-8" standalone="no"?>
<!DOCTYPE svg PUBLIC "-//W3C//DTD SVG 1.1//EN"
 "http://www.w3.org/Graphics/SVG/1.1/DTD/svg11.dtd">
<!-- Generated by graphviz version 3.0.0 (20220226.1711)
 -->
<!-- Title: g Pages: 1 -->
<svg width="316pt" height="225pt"
 viewBox="0.00 0.00 316.35 225.24" xmlns="http://www.w3.org/2000/svg" xmlns:xlink="http://www.w3.org/1999/xlink">
<g id="graph0" class="graph" transform="scale(1 1) rotate(0) translate(4 221.24)">
<title>g</title>
<polygon fill="white" stroke="transparent" points="-4,4 -4,-221.24 312.35,-221.24 312.35,4 -4,4"/>
<!-- CAS -->
<g id="node1" class="node">
<title>CAS</title>
<ellipse fill="none" stroke="black" cx="154.54" cy="-119.55" rx="28.7" ry="18"/>
<text text-anchor="middle" x="154.54" y="-115.85" font-family="Times New Roman,serif" font-size="14.00">CAS</text>
</g>
<!-- Business -->
<g id="node2" class="node">
<title>Business</title>
<ellipse fill="none" stroke="black" cx="251.34" cy="-87.78" rx="42.79" ry="18"/>
<text text-anchor="middle" x="251.34" y="-84.08" font-family="Times New Roman,serif" font-size="14.00">Business</text>
</g>
<!-- CAS&#45;&gt;Business -->
<g id="edge1" class="edge">
<title>CAS&#45;&gt;Business</title>
<path fill="none" stroke="#202020" stroke-width="0.5" d="M179.98,-111.2C188.46,-108.42 198.16,-105.23 207.63,-102.13"/>
<polygon fill="#202020" stroke="#202020" stroke-width="0.5" points="208.93,-105.38 217.34,-98.94 206.75,-98.73 208.93,-105.38"/>
</g>
<!-- Requirements -->
<g id="node3" class="node">
<title>Requirements</title>
<ellipse fill="none" stroke="black" cx="247.91" cy="-157.34" rx="60.39" ry="18"/>
<text text-anchor="middle" x="247.91" y="-153.64" font-family="Times New Roman,serif" font-size="14.00">Requirements</text>
</g>
<!-- CAS&#45;&gt;Requirements -->
<g id="edge2" class="edge">
<title>CAS&#45;&gt;Requirements</title>
<path fill="none" stroke="#202020" stroke-width="0.5" d="M179.07,-129.48C186.3,-132.4 194.44,-135.7 202.53,-138.97"/>
<polygon fill="#202020" stroke="#202020" stroke-width="0.5" points="201.37,-142.28 211.95,-142.79 203.99,-135.79 201.37,-142.28"/>
</g>
<!-- Design -->
<g id="node4" class="node">
<title>Design</title>
<ellipse fill="none" stroke="black" cx="194.72" cy="-70.05" rx="36" ry="18"/>
<text text-anchor="middle" x="194.72" y="-66.35" font-family="Times New Roman,serif" font-size="14.00">Design</text>
</g>
<!-- CAS&#45;&gt;Design -->
<g id="edge3" class="edge">
<title>CAS&#45;&gt;Design</title>
<path fill="none" stroke="#202020" stroke-width="0.5" d="M167.7,-103.34C169.92,-100.61 172.27,-97.71 174.61,-94.82"/>
<polygon fill="#202020" stroke="#202020" stroke-width="0.5" points="177.54,-96.77 181.12,-86.8 172.1,-92.36 177.54,-96.77"/>
</g>
<!-- Development -->
<g id="node5" class="node">
<title>Development</title>
<ellipse fill="none" stroke="black" cx="197.39" cy="-199.24" rx="58.49" ry="18"/>
<text text-anchor="middle" x="197.39" y="-195.54" font-family="Times New Roman,serif" font-size="14.00">Development</text>
</g>
<!-- CAS&#45;&gt;Development -->
<g id="edge4" class="edge">
<title>CAS&#45;&gt;Development</title>
<path fill="none" stroke="#202020" stroke-width="0.5" d="M163.84,-136.84C169.43,-147.24 176.67,-160.7 182.99,-172.46"/>
<polygon fill="#202020" stroke="#202020" stroke-width="0.5" points="180,-174.28 187.81,-181.43 186.16,-170.97 180,-174.28"/>
</g>
<!-- Testing -->
<g id="node6" class="node">
<title>Testing</title>
<ellipse fill="none" stroke="black" cx="83.2" cy="-190.78" rx="37.89" ry="18"/>
<text text-anchor="middle" x="83.2" y="-187.08" font-family="Times New Roman,serif" font-size="14.00">Testing</text>
</g>
<!-- CAS&#45;&gt;Testing -->
<g id="edge5" class="edge">
<title>CAS&#45;&gt;Testing</title>
<path fill="none" stroke="#202020" stroke-width="0.5" d="M139.06,-135C129.7,-144.35 117.56,-156.47 107,-167.02"/>
<polygon fill="#202020" stroke="#202020" stroke-width="0.5" points="104.25,-164.82 99.65,-174.36 109.19,-169.77 104.25,-164.82"/>
</g>
<!-- Deployment -->
<g id="node7" class="node">
<title>Deployment</title>
<ellipse fill="none" stroke="black" cx="54.6" cy="-122.52" rx="54.69" ry="18"/>
<text text-anchor="middle" x="54.6" y="-118.82" font-family="Times New Roman,serif" font-size="14.00">Deployment</text>
</g>
<!-- CAS&#45;&gt;Deployment -->
<g id="edge6" class="edge">
<title>CAS&#45;&gt;Deployment</title>
<path fill="none" stroke="#202020" stroke-width="0.5" d="M125.9,-120.4C123.75,-120.46 121.53,-120.53 119.26,-120.6"/>
<polygon fill="#202020" stroke="#202020" stroke-width="0.5" points="119,-117.1 109.11,-120.9 119.21,-124.1 119,-117.1"/>
</g>
<!-- Integration -->
<g id="node8" class="node">
<title>Integration</title>
<ellipse fill="none" stroke="black" cx="139.53" cy="-181.28" rx="49.29" ry="18"/>
<text text-anchor="middle" x="139.53" y="-177.58" font-family="Times New Roman,serif" font-size="14.00">Integration</text>
</g>
<!-- CAS&#45;&gt;Integration -->
<g id="edge7" class="edge">
<title>CAS&#45;&gt;Integration</title>
<path fill="none" stroke="#202020" stroke-width="0.5" d="M150.2,-137.4C149,-142.35 147.66,-147.84 146.36,-153.22"/>
<polygon fill="#202020" stroke="#202020" stroke-width="0.5" points="142.88,-152.71 143.92,-163.25 149.68,-154.36 142.88,-152.71"/>
</g>
<!-- Components -->
<g id="node9" class="node">
<title>Components</title>
<ellipse fill="none" stroke="black" cx="87" cy="-65.7" rx="57.69" ry="18"/>
<text text-anchor="middle" x="87" y="-62" font-family="Times New Roman,serif" font-size="14.00">Components</text>
</g>
<!-- CAS&#45;&gt;Components -->
<g id="edge8" class="edge">
<title>CAS&#45;&gt;Components</title>
<path fill="none" stroke="#202020" stroke-width="0.5" d="M136.8,-105.4C130.5,-100.38 123.24,-94.59 116.25,-89.02"/>
<polygon fill="#202020" stroke="#202020" stroke-width="0.5" points="118.23,-86.12 108.23,-82.63 113.87,-91.6 118.23,-86.12"/>
</g>
<!-- Support -->
<g id="node10" class="node">
<title>Support</title>
<ellipse fill="none" stroke="black" cx="146.6" cy="-18" rx="40.09" ry="18"/>
<text text-anchor="middle" x="146.6" y="-14.3" font-family="Times New Roman,serif" font-size="14.00">Support</text>
</g>
<!-- CAS&#45;&gt;Support -->
<g id="edge9" class="edge">
<title>CAS&#45;&gt;Support</title>
<path fill="none" stroke="#202020" stroke-width="0.5" d="M153.12,-101.39C151.93,-86.09 150.19,-63.92 148.81,-46.29"/>
<polygon fill="#202020" stroke="#202020" stroke-width="0.5" points="152.27,-45.69 148,-36 145.3,-46.24 152.27,-45.69"/>
</g>
</g>
</svg>
